<svg xmlns="http://www.w3.org/2000/svg" viewBox="0 0 660 560" width="660" height="560" font-family="Helvetica, Arial, sans-serif">
<title>Planche de Galton : 12 rebonds, comme 12 lancers de pièce</title>
<desc>Chaque bille rebondit 12 fois à gauche ou à droite. Les billes s'entassent en cloche au milieu : 6 « Pile » est le plus fréquent, 0 ou 12 « Pile » n'arrive qu'une fois sur 4 096.</desc>
<rect x="0" y="0" width="660" height="560" rx="18" fill="#ffffff"/>
<text x="330" y="32" text-anchor="middle" font-size="16" fill="#3c4043">Chaque bille rebondit 12 fois : à droite = Pile, à gauche = Face</text>
<circle cx="330.0" cy="78.0" r="4" fill="#5f6368"/><circle cx="310.0" cy="100.0" r="4" fill="#5f6368"/><circle cx="350.0" cy="100.0" r="4" fill="#5f6368"/><circle cx="290.0" cy="122.0" r="4" fill="#5f6368"/><circle cx="330.0" cy="122.0" r="4" fill="#5f6368"/><circle cx="370.0" cy="122.0" r="4" fill="#5f6368"/><circle cx="270.0" cy="144.0" r="4" fill="#5f6368"/><circle cx="310.0" cy="144.0" r="4" fill="#5f6368"/><circle cx="350.0" cy="144.0" r="4" fill="#5f6368"/><circle cx="390.0" cy="144.0" r="4" fill="#5f6368"/><circle cx="250.0" cy="166.0" r="4" fill="#5f6368"/><circle cx="290.0" cy="166.0" r="4" fill="#5f6368"/><circle cx="330.0" cy="166.0" r="4" fill="#5f6368"/><circle cx="370.0" cy="166.0" r="4" fill="#5f6368"/><circle cx="410.0" cy="166.0" r="4" fill="#5f6368"/><circle cx="230.0" cy="188.0" r="4" fill="#5f6368"/><circle cx="270.0" cy="188.0" r="4" fill="#5f6368"/><circle cx="310.0" cy="188.0" r="4" fill="#5f6368"/><circle cx="350.0" cy="188.0" r="4" fill="#5f6368"/><circle cx="390.0" cy="188.0" r="4" fill="#5f6368"/><circle cx="430.0" cy="188.0" r="4" fill="#5f6368"/><circle cx="210.0" cy="210.0" r="4" fill="#5f6368"/><circle cx="250.0" cy="210.0" r="4" fill="#5f6368"/><circle cx="290.0" cy="210.0" r="4" fill="#5f6368"/><circle cx="330.0" cy="210.0" r="4" fill="#5f6368"/><circle cx="370.0" cy="210.0" r="4" fill="#5f6368"/><circle cx="410.0" cy="210.0" r="4" fill="#5f6368"/><circle cx="450.0" cy="210.0" r="4" fill="#5f6368"/><circle cx="190.0" cy="232.0" r="4" fill="#5f6368"/><circle cx="230.0" cy="232.0" r="4" fill="#5f6368"/><circle cx="270.0" cy="232.0" r="4" fill="#5f6368"/><circle cx="310.0" cy="232.0" r="4" fill="#5f6368"/><circle cx="350.0" cy="232.0" r="4" fill="#5f6368"/><circle cx="390.0" cy="232.0" r="4" fill="#5f6368"/><circle cx="430.0" cy="232.0" r="4" fill="#5f6368"/><circle cx="470.0" cy="232.0" r="4" fill="#5f6368"/><circle cx="170.0" cy="254.0" r="4" fill="#5f6368"/><circle cx="210.0" cy="254.0" r="4" fill="#5f6368"/><circle cx="250.0" cy="254.0" r="4" fill="#5f6368"/><circle cx="290.0" cy="254.0" r="4" fill="#5f6368"/><circle cx="330.0" cy="254.0" r="4" fill="#5f6368"/><circle cx="370.0" cy="254.0" r="4" fill="#5f6368"/><circle cx="410.0" cy="254.0" r="4" fill="#5f6368"/><circle cx="450.0" cy="254.0" r="4" fill="#5f6368"/><circle cx="490.0" cy="254.0" r="4" fill="#5f6368"/><circle cx="150.0" cy="276.0" r="4" fill="#5f6368"/><circle cx="190.0" cy="276.0" r="4" fill="#5f6368"/><circle cx="230.0" cy="276.0" r="4" fill="#5f6368"/><circle cx="270.0" cy="276.0" r="4" fill="#5f6368"/><circle cx="310.0" cy="276.0" r="4" fill="#5f6368"/><circle cx="350.0" cy="276.0" r="4" fill="#5f6368"/><circle cx="390.0" cy="276.0" r="4" fill="#5f6368"/><circle cx="430.0" cy="276.0" r="4" fill="#5f6368"/><circle cx="470.0" cy="276.0" r="4" fill="#5f6368"/><circle cx="510.0" cy="276.0" r="4" fill="#5f6368"/><circle cx="130.0" cy="298.0" r="4" fill="#5f6368"/><circle cx="170.0" cy="298.0" r="4" fill="#5f6368"/><circle cx="210.0" cy="298.0" r="4" fill="#5f6368"/><circle cx="250.0" cy="298.0" r="4" fill="#5f6368"/><circle cx="290.0" cy="298.0" r="4" fill="#5f6368"/><circle cx="330.0" cy="298.0" r="4" fill="#5f6368"/><circle cx="370.0" cy="298.0" r="4" fill="#5f6368"/><circle cx="410.0" cy="298.0" r="4" fill="#5f6368"/><circle cx="450.0" cy="298.0" r="4" fill="#5f6368"/><circle cx="490.0" cy="298.0" r="4" fill="#5f6368"/><circle cx="530.0" cy="298.0" r="4" fill="#5f6368"/><circle cx="110.0" cy="320.0" r="4" fill="#5f6368"/><circle cx="150.0" cy="320.0" r="4" fill="#5f6368"/><circle cx="190.0" cy="320.0" r="4" fill="#5f6368"/><circle cx="230.0" cy="320.0" r="4" fill="#5f6368"/><circle cx="270.0" cy="320.0" r="4" fill="#5f6368"/><circle cx="310.0" cy="320.0" r="4" fill="#5f6368"/><circle cx="350.0" cy="320.0" r="4" fill="#5f6368"/><circle cx="390.0" cy="320.0" r="4" fill="#5f6368"/><circle cx="430.0" cy="320.0" r="4" fill="#5f6368"/><circle cx="470.0" cy="320.0" r="4" fill="#5f6368"/><circle cx="510.0" cy="320.0" r="4" fill="#5f6368"/><circle cx="550.0" cy="320.0" r="4" fill="#5f6368"/>
<path d="M330.0,52.0 L330.0,70.0 L350.0,92.0 L350.0,92.0 L330.0,114.0 L330.0,114.0 L350.0,136.0 L350.0,136.0 L370.0,158.0 L370.0,158.0 L350.0,180.0 L350.0,180.0 L370.0,202.0 L370.0,202.0 L350.0,224.0 L350.0,224.0 L370.0,246.0 L370.0,246.0 L390.0,268.0 L390.0,268.0 L370.0,290.0 L370.0,290.0 L350.0,312.0 L350.0,312.0 L370.0,334.0 L370.0,472.0" fill="none" stroke="#d93025" stroke-width="3" stroke-linejoin="round" stroke-dasharray="1 0"/>
<circle cx="330" cy="52" r="7" fill="#d93025"/>
<text x="348" y="56" font-size="13" fill="#d93025">une bille</text>
<line x1="70.0" y1="338" x2="70.0" y2="490" stroke="#bdc1c6" stroke-width="2"/><line x1="110.0" y1="338" x2="110.0" y2="490" stroke="#bdc1c6" stroke-width="2"/><line x1="150.0" y1="338" x2="150.0" y2="490" stroke="#bdc1c6" stroke-width="2"/><line x1="190.0" y1="338" x2="190.0" y2="490" stroke="#bdc1c6" stroke-width="2"/><line x1="230.0" y1="338" x2="230.0" y2="490" stroke="#bdc1c6" stroke-width="2"/><line x1="270.0" y1="338" x2="270.0" y2="490" stroke="#bdc1c6" stroke-width="2"/><line x1="310.0" y1="338" x2="310.0" y2="490" stroke="#bdc1c6" stroke-width="2"/><line x1="350.0" y1="338" x2="350.0" y2="490" stroke="#bdc1c6" stroke-width="2"/><line x1="390.0" y1="338" x2="390.0" y2="490" stroke="#bdc1c6" stroke-width="2"/><line x1="430.0" y1="338" x2="430.0" y2="490" stroke="#bdc1c6" stroke-width="2"/><line x1="470.0" y1="338" x2="470.0" y2="490" stroke="#bdc1c6" stroke-width="2"/><line x1="510.0" y1="338" x2="510.0" y2="490" stroke="#bdc1c6" stroke-width="2"/><line x1="550.0" y1="338" x2="550.0" y2="490" stroke="#bdc1c6" stroke-width="2"/><line x1="590.0" y1="338" x2="590.0" y2="490" stroke="#bdc1c6" stroke-width="2"/>
<rect x="75.0" y="489.9" width="30" height="1.5" fill="#e8710a" rx="2"/><text x="90.0" y="510" text-anchor="middle" font-size="13" fill="#3c4043">0</text><rect x="115.0" y="488.4" width="30" height="1.6" fill="#1a73e8" rx="2"/><text x="130.0" y="510" text-anchor="middle" font-size="13" fill="#3c4043">1</text><rect x="155.0" y="481.3" width="30" height="8.7" fill="#1a73e8" rx="2"/><text x="170.0" y="510" text-anchor="middle" font-size="13" fill="#3c4043">2</text><rect x="195.0" y="461.0" width="30" height="29.0" fill="#1a73e8" rx="2"/><text x="210.0" y="510" text-anchor="middle" font-size="13" fill="#3c4043">3</text><rect x="235.0" y="424.6" width="30" height="65.4" fill="#1a73e8" rx="2"/><text x="250.0" y="510" text-anchor="middle" font-size="13" fill="#3c4043">4</text><rect x="275.0" y="385.4" width="30" height="104.6" fill="#1a73e8" rx="2"/><text x="290.0" y="510" text-anchor="middle" font-size="13" fill="#3c4043">5</text><rect x="315.0" y="368.0" width="30" height="122.0" fill="#174ea6" rx="2"/><text x="330.0" y="510" text-anchor="middle" font-size="13" fill="#3c4043">6</text><rect x="355.0" y="385.4" width="30" height="104.6" fill="#1a73e8" rx="2"/><text x="370.0" y="510" text-anchor="middle" font-size="13" fill="#3c4043">7</text><rect x="395.0" y="424.6" width="30" height="65.4" fill="#1a73e8" rx="2"/><text x="410.0" y="510" text-anchor="middle" font-size="13" fill="#3c4043">8</text><rect x="435.0" y="461.0" width="30" height="29.0" fill="#1a73e8" rx="2"/><text x="450.0" y="510" text-anchor="middle" font-size="13" fill="#3c4043">9</text><rect x="475.0" y="481.3" width="30" height="8.7" fill="#1a73e8" rx="2"/><text x="490.0" y="510" text-anchor="middle" font-size="13" fill="#3c4043">10</text><rect x="515.0" y="488.4" width="30" height="1.6" fill="#1a73e8" rx="2"/><text x="530.0" y="510" text-anchor="middle" font-size="13" fill="#3c4043">11</text><rect x="555.0" y="489.9" width="30" height="1.5" fill="#e8710a" rx="2"/><text x="570.0" y="510" text-anchor="middle" font-size="13" fill="#3c4043">12</text>
<line x1="70.0" y1="490" x2="590.0" y2="490" stroke="#5f6368" stroke-width="2"/>
<text x="330" y="532" text-anchor="middle" font-size="14" fill="#3c4043">nombre de Pile sur 12 lancers</text>
<text x="330.0" y="360.0" text-anchor="middle" font-size="14" font-weight="bold" fill="#174ea6">≈ 23 %</text>
<text x="594.0" y="456.0" text-anchor="end" font-size="13" font-weight="bold" fill="#e8710a">12 Pile :</text>
<text x="594.0" y="472.0" text-anchor="end" font-size="13" font-weight="bold" fill="#e8710a">1 sur 4 096</text>
</svg>